<svg xmlns="http://www.w3.org/2000/svg" viewBox="0 0 188.48 29.17"><defs><style>.cls-1{fill:#fff;}</style></defs><title>Asset 3</title><g id="Layer_2" data-name="Layer 2"><g id="Layer_1-2" data-name="Layer 1"><path class="cls-1" d="M183.19,9.24a2.65,2.65,0,1,1,2.64,2.66A2.63,2.63,0,0,1,183.19,9.24Zm4.59,0a2,2,0,1,0-3.9,0,2,2,0,1,0,3.9,0Zm-.64,1.45h-.68l-.64-1.2h-.47v1.2h-.6V7.83h1.37c.76,0,1.12.2,1.12.88,0,.52-.28.74-.78.78Zm-1-1.64c.33,0,.55-.07.55-.42s-.41-.36-.69-.36h-.64v.78Z"/><path class="cls-1" d="M16.92,4h-6.1V23.51H6.1V4H0V0H16.92Z"/><path class="cls-1" d="M23.18,8.34a8.15,8.15,0,0,1,5.05-2.11c1.84,0,4.44,1.11,4.44,5.29v12H28.2V13.33c0-1.36.09-3.51-1.84-3.51a4.64,4.64,0,0,0-3.18,1.85V23.51H18.71V0h4.47Z"/><path class="cls-1" d="M34.52,15.05c0-4.5,2.47-8.82,7.43-8.82s7.44,4.32,7.44,8.82S46.88,23.88,42,23.88,34.52,19.52,34.52,15.05Zm10.27,0c0-2.11-.42-5.53-2.84-5.53s-2.84,3.42-2.84,5.53.42,5.53,2.84,5.53S44.79,17.17,44.79,15.05Z"/><path class="cls-1" d="M60.84,21.76a8.13,8.13,0,0,1-5.05,2.12c-1.84,0-4.44-1.12-4.44-5.29v-12h4.47V16.77c0,1.36-.09,3.51,1.85,3.51a4.65,4.65,0,0,0,3.17-1.84V6.59h4.47V23.51H60.84Z"/><path class="cls-1" d="M72.63,18A1.15,1.15,0,0,0,71.36,19c0,2.21,11.73-1.63,11.73,5,0,2.51-1.7,5.17-8.41,5.17-5.83,0-7.82-2.06-7.82-4.27,0-1.3.81-2,1.84-2.56a2.69,2.69,0,0,1-1.33-2.15c0-1.66.91-2.54,2.21-3.39a6.35,6.35,0,0,1-2.12-4.65c0-3.75,3.17-5.92,6.83-5.92A8.17,8.17,0,0,1,78.46,7.4,4.17,4.17,0,0,1,81.51,6a5.68,5.68,0,0,1,1.3.13V9.28a3.92,3.92,0,0,0-1.42-.36,2.5,2.5,0,0,0-1.21.36,6.7,6.7,0,0,1,.91,2.87c0,3.75-3.14,5.92-6.8,5.92Zm-1.42,5.59c-.43.28-.7.52-.7,1.06,0,1.57,3.18,1.67,4.23,1.67.76,0,4.69-.1,4.69-1.46,0-.87-.6-.78-3.27-.93Zm3.08-8.43c1.87,0,2.42-1.54,2.42-3.14S76,9.13,74.29,9.13c-1.87,0-2.45,1.57-2.45,3.17S72.57,15.11,74.29,15.11Z"/><path class="cls-1" d="M89.22,8.34a8.12,8.12,0,0,1,5-2.11c1.84,0,4.44,1.11,4.44,5.29v12H94.24V13.33c0-1.36.09-3.51-1.85-3.51a4.62,4.62,0,0,0-3.17,1.85V23.51H84.75V0h4.47Z"/><path class="cls-1" d="M106.84,6.59h3.48v3.72h-3.48v8.61c0,.82.24,1.66,1.69,1.66a3.22,3.22,0,0,0,1.79-.63v3.41a10.21,10.21,0,0,1-2.87.52c-2.78,0-5.08-1.57-5.08-5.26V10.31h-2.09V6.59h2.09V2.36h4.47Z"/><path class="cls-1" d="M128.94,23.51h-2.42l-4-19.22h-.06l-4.2,19.22h-2.42L110.92,0h2.36l3.87,19h.06l4.23-19h2.33l4,19h.06L132,0h2.33Z"/><path class="cls-1" d="M133.29,15.17c0-6.25,3-8.82,6.68-8.82s6.68,2.57,6.68,8.82S143.68,24,140,24,133.29,21.43,133.29,15.17Zm11,0c0-2.84-.69-6.83-4.32-6.83s-4.33,4-4.33,6.83S136.34,22,140,22,144.29,18,144.29,15.17Z"/><path class="cls-1" d="M150.85,10.43h.06c.94-2,2.15-3.84,4.62-3.84h.91V8.73c-3.08-.42-4.69,2.91-5.59,5.32v9.46h-2.36V6.83h2.36Z"/><path class="cls-1" d="M160.7,14.57l6.2-7.74h2.63l-4.6,5.71,5.29,11h-2.54l-4.26-9.06L160.7,17.8v5.71h-2.36V0h2.36Z"/><path class="cls-1" d="M180.44,10.55a4.32,4.32,0,0,0-3.81-2.21c-1.54,0-3,.79-3,2.48,0,4.08,8.79,2.3,8.79,7.92C182.43,22,180.1,24,177,24a6.83,6.83,0,0,1-6.22-3.51l1.87-1.18A4.66,4.66,0,0,0,177,22c1.72,0,3.27-.93,3.27-2.84,0-4.2-8.8-2.2-8.8-8.19,0-2.87,2.36-4.62,5.11-4.62a6.38,6.38,0,0,1,5.56,2.9Z"/></g></g></svg>