<svg xmlns="http://www.w3.org/2000/svg" viewBox="0 0 532.89 442.61"><defs><style>.cls-1,.cls-2,.cls-3,.cls-4,.cls-5{fill:#0bbdcd;}.cls-2{opacity:0.8;}.cls-3{opacity:0.9;}.cls-4{opacity:0.95;}.cls-5{opacity:0.7;}.cls-6{fill:#010101;opacity:0.3;}</style></defs><title>Asset 3</title><g id="Layer_2" data-name="Layer 2"><g id="Layer_1-2" data-name="Layer 1"><polygon class="cls-1" points="444.37 442.61 444.37 354.09 532.89 354.09 444.37 442.61"/><polygon class="cls-2" points="444.37 265.56 444.37 354.09 532.89 354.09 444.37 265.56"/><polygon class="cls-3" points="444.37 265.56 532.89 265.56 532.89 354.09 444.37 265.56"/><polygon class="cls-4" points="444.37 265.56 444.37 177.04 532.89 177.04 444.37 265.56"/><polygon class="cls-5" points="444.37 88.52 444.37 177.04 532.89 177.04 444.37 88.52"/><polygon class="cls-2" points="444.37 265.56 532.89 265.56 532.89 177.04 444.37 265.56"/><polygon class="cls-3" points="444.37 88.52 532.89 88.52 532.89 177.04 444.37 88.52"/><polygon class="cls-5" points="532.89 0 532.89 88.52 444.37 88.52 532.89 0"/><polygon class="cls-4" points="444.37 70.82 444.37 0 515.19 0 444.37 70.82"/><rect class="cls-1" x="178.81" y="354.09" width="88.52" height="88.52"/><polygon class="cls-5" points="267.33 442.61 267.33 354.09 355.85 354.09 267.33 442.61"/><polygon class="cls-5" points="178.81 442.61 178.81 354.09 90.29 354.09 178.81 442.61"/><polygon class="cls-2" points="267.33 265.56 267.33 354.09 355.85 354.09 267.33 265.56"/><polygon class="cls-2" points="178.81 265.56 178.81 354.09 90.29 354.09 178.81 265.56"/><polygon class="cls-3" points="267.33 265.56 355.85 265.56 355.85 354.09 267.33 265.56"/><polygon class="cls-3" points="178.81 265.56 90.29 265.56 90.29 354.09 178.81 265.56"/><polygon class="cls-4" points="267.33 265.56 267.33 177.04 355.85 177.04 267.33 265.56"/><polygon class="cls-4" points="178.81 265.56 178.81 177.04 90.29 177.04 178.81 265.56"/><polygon class="cls-5" points="267.33 88.52 267.33 177.04 355.85 177.04 267.33 88.52"/><polygon class="cls-5" points="178.81 88.52 178.81 177.04 90.29 177.04 178.81 88.52"/><polygon class="cls-2" points="267.33 265.56 355.85 265.56 355.85 177.04 267.33 265.56"/><polygon class="cls-2" points="178.81 265.56 90.29 265.56 90.29 177.04 178.81 265.56"/><polygon class="cls-3" points="267.33 88.52 355.85 88.52 355.85 177.04 267.33 88.52"/><polygon class="cls-3" points="178.81 88.52 90.29 88.52 90.29 177.04 178.81 88.52"/><polygon class="cls-2" points="178.81 88.52 90.29 88.52 90.29 0 178.81 88.52"/><polygon class="cls-5" points="355.85 0 355.85 88.52 267.33 88.52 355.85 0"/><polygon class="cls-5" points="1.77 0 90.29 0 90.29 88.52 1.77 0"/><path class="cls-1" d="M1.06,379.51H44.5a25,25,0,0,1,13,3.33,21.71,21.71,0,0,1,8.58,9.62,34.44,34.44,0,0,1,3,14.88q0,12.95-6.64,20.11t-18.16,7.17H1.06V420.43H42.15q7.77,0,11.39-3.12T57.17,407q0-7-3.65-10.12T42.06,393.7h-41Z"/><path class="cls-1" d="M68.19,307.06v18.09L17.4,354.36v.41q13.46-.87,19.2-.87H68.19v12.72H1.06v-18L51.34,319.5v-.32q-13.1.69-18.51.69H1.06V307.06Z"/><path class="cls-1" d="M68.19,279.69v14H1.06V255.22H12.72v24.47H30V256.92H41.65v22.77Z"/><path class="cls-1" d="M34.53,184.69q16.67,0,25.62,8.27t9,23.69q0,15.43-9,23.7t-25.71,8.26q-16.75,0-25.6-8.29T0,216.56q0-15.48,8.91-23.67T34.53,184.69Zm0,49q11.25,0,16.95-4.27t5.69-12.77q0-17-22.64-17T11.85,216.56q0,8.5,5.71,12.81T34.53,233.69Z"/><path class="cls-1" d="M68.19,174.32H1.06V160.09H56.44V132.85H68.19Z"/><path class="cls-1" d="M34,69q16.58,0,25.39,9.44t8.82,27.25v19H1.06V103.65q0-16.43,8.68-25.53T34,69Zm.37,14.79q-21.63,0-21.63,19.1v7.58H56.44v-6.11Q56.44,83.81,34.35,83.82Z"/><polygon class="cls-6" points="532.89 97.37 532.89 88.52 444.37 88.52 532.89 97.37"/><polygon class="cls-6" points="444.37 345.23 444.37 354.09 532.89 354.09 444.37 345.23"/><polygon class="cls-6" points="355.85 97.37 355.85 88.52 267.33 88.52 355.85 97.37"/><polygon class="cls-6" points="258.48 354.09 267.33 354.09 267.33 442.61 258.48 354.09"/><polygon class="cls-6" points="178.81 345.23 178.81 354.09 90.29 354.09 178.81 345.23"/><polygon class="cls-6" points="90.29 97.37 90.29 88.52 178.81 88.52 90.29 97.37"/></g></g></svg>